<svg width="2601" height="1654" viewBox="0 0 2601 1654" fill="none" xmlns="http://www.w3.org/2000/svg">
<path d="M1334.4 0.080384C1263.58 1.37236 1200.34 6.37174 1137.54 15.4717C975.003 39.1205 838.466 85.0699 707.378 160.229C642.17 197.64 578.423 243.646 524.224 292.348C505.69 308.975 475.585 340.038 456.826 361.89C382.295 448.508 327.422 556.248 301.025 667.975C291.982 706.173 286.478 741.393 283.558 779.984C282.547 792.791 282.21 839.246 282.94 853.964C287.321 938.728 305.406 1015.35 338.15 1087.81C344.047 1100.84 356.853 1125.95 364.21 1138.82L370.669 1150.22L369.715 1151.74C365.952 1157.52 325.007 1212.29 309.955 1231.61C266.259 1287.84 203.916 1362.16 104.616 1476.58C62.2682 1525.29 56.5955 1532.03 48.6201 1542.36C31.3214 1564.89 24.3569 1580.28 26.3227 1591.57C29.1871 1608.08 47.6653 1614.77 90.0698 1614.77C134.272 1614.71 192.29 1606.68 294.847 1586.35C411.838 1563.15 571.908 1528.77 730.574 1492.87L755.567 1487.2L769.047 1494C776.517 1497.76 782.863 1501.02 783.144 1501.24C783.481 1501.47 791.4 1505.4 800.836 1509.95C926.084 1570.45 1043.36 1606.96 1191.46 1631.51C1354.51 1658.58 1495.03 1661.06 1654.26 1639.71C1765.69 1624.77 1858.76 1602.69 1945.76 1570.62C2033.43 1538.26 2113.41 1496.41 2186.98 1444.28C2258.82 1393.39 2318.47 1338.9 2376.77 1270.93C2438.77 1198.64 2486.68 1125.28 2522.57 1047.65C2551.72 984.622 2568.96 929.966 2579.52 867.333C2590.87 799.645 2593.11 739.764 2585.98 690.669C2577.61 632.362 2556.55 576.358 2520.38 515.972C2504.09 488.784 2487.02 465.416 2465.34 440.7C2457.47 431.712 2434.84 409.131 2425.35 400.761C2405.75 383.46 2382.27 365.316 2358.9 349.419C2350.65 343.746 2348.63 342.117 2346.49 339.196C2331.61 318.861 2326.22 312.57 2311.33 298.021C2273.31 260.779 2217.03 221.345 2151.04 185.563C2061.91 137.198 1949.63 94.0575 1829.21 61.8143C1698.07 26.7063 1556.53 5.86619 1415.84 0.866804C1399.1 0.305075 1349.34 -0.20048 1334.4 0.080384Z" fill="#FFF9F0"/>
<path d="M1434.01 623.442C1423.21 623.977 1415.14 624.885 1406.49 626.435C1351.83 636.376 1309.56 662.672 1281.78 704.147C1264.36 730.068 1253.19 759.892 1249.08 791.372C1247.9 800.351 1247.53 820.179 1248.28 830.067C1251.96 876.619 1266.44 919.643 1289.42 952.139C1318.59 993.453 1367.38 1021.57 1422.25 1028.83C1445.65 1031.88 1471.3 1030.81 1491.34 1025.9C1509.29 1021.51 1528.1 1013.87 1543.01 1004.89C1576.78 984.635 1603.76 950.749 1620.91 907.244C1638.97 861.387 1643.67 810.238 1633.79 767.267C1627.75 741.078 1617.7 720.127 1601.73 700.138C1596.06 693.03 1576.83 673.682 1570.52 668.658C1564.22 663.634 1554.71 657.328 1548.35 653.907C1544.77 652.036 1541.78 649.898 1539.27 647.493C1534.56 643.004 1531.63 641.026 1525.48 638.14C1513.94 632.742 1492.46 627.184 1473.81 624.832C1467.56 624.03 1448.06 622.854 1443.89 623.015C1442.88 623.015 1438.39 623.229 1434.01 623.442Z" fill="#00624D"/>
<path d="M895.679 628.895C863.62 630.231 828.569 639.851 801.532 654.709C793.998 658.825 782.297 666.735 775.19 672.4C767.282 678.707 753.818 692.282 747.566 700.139C730.575 721.571 718.446 745.355 712.141 769.62C704.18 800.351 702.79 834.076 708.401 860.693C714.064 887.469 728.117 916.598 745.269 937.121C764.985 960.798 794.052 982.497 823.012 995.325C853.575 1008.85 897.763 1016.6 930.677 1014.19C969.415 1011.36 1007.67 999.119 1033.8 981.108C1060.89 962.455 1088.3 927.982 1102.35 894.898C1113.47 868.816 1119.29 836.161 1118.33 805.696C1117.79 790.357 1116.3 779.186 1112.83 765.077C1104.92 732.795 1094.71 713.661 1072.54 689.396C1056.24 671.652 1040.96 659.894 1020.87 649.739C995.276 636.805 975.292 631.086 949.378 629.376C939.279 628.681 907.327 628.414 895.679 628.895Z" fill="#00624D"/>
<path d="M1961.53 645.088C1931.66 647.921 1901.42 656.473 1880.69 667.91C1848.84 685.548 1821.97 716.547 1805.88 754.12C1800.75 766.038 1794.98 785.065 1792.31 798.747C1786.54 828.464 1787.4 858.34 1794.93 888.538C1800.81 911.947 1812.46 935.304 1828.06 954.812C1837.94 967.158 1854.45 982.283 1868.4 991.797C1896.34 1010.82 1922.04 1018.89 1970.45 1023.7C1995.3 1026.16 2020.89 1026.54 2038.58 1024.56C2075.55 1020.55 2105.26 1009.38 2128.08 990.995C2161.42 964.111 2188.19 911.359 2195.61 858.02C2200.42 823.547 2197.06 790.036 2185.73 759.197C2183.06 752.035 2175.04 735.894 2170.82 729.267C2157.25 707.995 2137.59 687.632 2117.93 674.484C2094.63 658.878 2065.13 650.326 2024.95 647.494C2020.84 647.226 2014.11 646.478 2009.99 645.837C2000.21 644.34 1973.61 643.966 1961.53 645.088Z" fill="#00624D"/>
</svg>
