<svg width="1590" height="972" viewBox="0 0 1590 972" fill="none" xmlns="http://www.w3.org/2000/svg">
<g clip-path="url(#clip0_1_2)">
<path d="M244.5 128H59.5V813L260.5 831.5L295 905.5L382.5 945L480 905.5L517 831.5H1176L1194.5 876.5L1340 945L1445.5 850L1554 813V654L1488 553.5L1411 508.5L1340 461L1194.5 344.5L1340 310.5V170L1176 61.5H829.5L244.5 128Z" fill="#FFF9F0"/>
<path d="M938.581 1.37079C891.977 4.67426 844.923 11.1311 778.988 23.1439C646.218 47.6198 582.53 57.9808 533.229 63.5367C488.123 68.4919 355.803 71.4951 297.21 68.6421C244.912 66.2396 168.637 66.2396 148.856 68.6421C75.1284 77.5015 24.3283 101.227 8.89342 133.961C0.501658 151.53 -0.247607 157.687 0.0520993 206.188C0.351805 276.012 3.64857 427.072 5.1471 442.689C5.89636 450.497 6.79548 520.471 7.24504 598.104C7.9943 737.451 9.19313 782.349 13.2392 801.719C17.435 822.141 28.5242 836.556 47.4056 845.866C69.434 856.528 89.814 858.93 143.611 856.978C165.64 856.077 192.164 854.125 208.048 852.023C223.033 850.071 235.621 849.17 236.37 849.921C237.269 850.521 238.768 854.425 239.817 858.48C253.154 911.186 296.761 954.431 350.408 968.396C361.797 971.399 367.491 972 387.871 972C408.251 972 413.796 971.55 424.585 968.546C452.008 961.038 481.829 942.719 502.359 920.796C515.696 906.531 524.687 891.515 531.73 871.994L536.675 857.879L543.269 858.329C573.539 859.981 726.239 860.131 791.725 858.48C836.082 857.278 932.886 856.377 1019.8 856.377H1170.55L1175.2 868.39C1187.79 901.575 1220.45 937.463 1252.82 953.831C1283.84 969.447 1313.36 974.252 1344.83 968.997C1383.49 962.54 1403.72 953.831 1422.91 935.361C1445.38 913.888 1460.67 891.815 1468.31 869.892L1471.46 860.882L1483.3 859.981C1504.58 858.48 1530.2 850.221 1546.53 839.71C1568.41 825.745 1582.5 802.02 1587.59 770.787C1590.14 754.87 1589.69 707.419 1586.84 690.151C1582.05 661.17 1572.16 636.845 1559.27 622.73C1554.48 617.474 1550.13 610.567 1547.13 603.209C1524.66 549.152 1477.6 504.254 1432.2 493.593C1424.85 491.791 1416.31 489.839 1413.17 488.938C1410.02 488.187 1405.97 485.784 1404.17 483.682C1399.53 478.276 1363.26 446.893 1345.88 433.379C1330 420.916 1290.74 393.437 1259.72 373.165C1248.78 366.108 1239.79 359.501 1239.79 358.6C1239.79 357.849 1242.33 357.098 1245.48 357.098C1254.02 357.098 1277.7 352.743 1292.23 348.539C1311.27 343.133 1323.7 335.775 1336.59 322.862C1354.12 305.143 1364.91 287.424 1373.45 262.047C1377.35 250.335 1378.25 245.38 1378.85 228.862C1379.9 200.182 1375.1 179.159 1361.02 151.23C1339.14 107.383 1290.44 68.9424 1224.05 42.8147C1163.06 18.9394 1108.66 6.92664 1034.64 1.22058C1011.71 -0.431152 964.206 -0.431152 938.581 1.37079ZM1059.21 85.1596C1105.52 90.7155 1174 104.38 1199.62 113.239C1220.15 120.297 1255.07 137.265 1271.1 147.926C1304.52 170.15 1319.96 194.025 1319.81 223.456C1319.81 233.066 1318.91 238.322 1316.36 244.779C1311.86 256.341 1301.67 269.705 1292.68 275.562C1280.55 283.52 1272.75 284.871 1229.9 286.523C1208.62 287.274 1177.3 289.226 1160.36 290.878C1123.05 294.482 1092.78 296.584 1047.22 298.536C983.537 301.389 970.649 303.791 964.206 314.002C959.261 322.111 955.065 340.43 953.566 361.603C952.517 374.366 952.068 458.305 952.367 590.295L952.817 798.566H930.489H908.161L908.91 722.285C910.109 596.602 907.112 448.695 902.466 404.398C899.769 379.171 892.726 361.903 880.438 350.791C863.804 335.625 839.079 330.069 788.728 330.069C709.905 330.069 676.338 337.277 654.759 358.9C640.224 373.615 634.38 388.782 631.382 420.615C629.284 440.887 629.434 550.653 631.382 584.739C633.031 613.27 636.028 794.362 634.829 795.563C634.38 796.013 615.498 796.764 592.72 797.215C569.943 797.815 548.664 798.716 545.667 799.317C542.52 799.918 539.972 800.068 539.972 799.617C539.972 795.413 535.027 774.691 532.03 767.033C511.051 711.324 472.089 677.538 418.591 668.378C365.693 659.519 321.487 674.384 282.075 714.477C262.744 734.148 248.958 757.422 243.114 780.247C242.065 784.601 240.416 788.806 239.517 789.557C238.468 790.458 230.526 790.007 219.287 788.806C208.947 787.604 189.766 785.803 176.579 785.052C141.064 782.799 93.4105 778.895 87.4164 777.694L82.1715 776.643L82.0216 718.231C81.8718 652.311 79.1744 531.583 76.9266 488.487C72.7308 405.599 70.9325 345.986 70.7827 279.015C70.7827 203.936 72.2812 173.153 76.1774 166.996C78.2753 163.693 92.2116 158.137 111.243 152.881C132.522 147.175 150.654 146.425 224.532 147.776C371.238 150.479 451.559 148.227 535.477 138.616C545.816 137.415 572.49 134.712 594.668 132.61C675.739 124.802 676.638 124.651 795.471 102.728C858.26 91.166 900.818 85.6101 953.566 81.7059C973.646 80.3546 1034.79 82.3066 1059.21 85.1596ZM1065.21 353.945C1084.99 355.596 1113.91 357.398 1129.49 357.849L1157.97 358.75L1173.7 375.417C1189.14 391.785 1229 427.072 1254.77 447.193C1274.1 462.51 1293.43 475.273 1319.96 490.59C1333.14 498.248 1345.28 505.756 1346.93 507.407C1349.48 509.96 1349.93 512.513 1350.08 533.085C1350.23 551.554 1350.83 558.461 1353.37 568.072C1360.42 593.599 1376.15 618.826 1397.73 638.947C1423.65 662.972 1447.93 670.931 1496.33 670.931H1519.86L1521.51 677.087C1527.65 700.062 1529 709.672 1529 735.8C1529 774.991 1526.45 782.95 1511.17 792.109C1503.38 796.764 1495.73 798.866 1480.75 800.668L1473.71 801.569L1472.81 795.863C1471.01 785.202 1464.56 764.029 1460.07 754.119C1439.54 708.621 1385.59 670.781 1333.14 664.924C1279.35 659.068 1226.45 681.742 1194.08 724.688C1178.2 745.71 1164.86 776.793 1164.86 792.56V796.614L1109.86 797.064C1079.44 797.365 1046.03 797.665 1035.24 797.665L1015.76 797.815L1016.05 791.058C1017.25 769.886 1017.55 393.136 1016.35 374.516C1015.61 362.354 1015.31 351.692 1015.76 351.092C1016.2 350.491 1019.35 350.191 1022.8 350.491C1026.39 350.791 1045.43 352.443 1065.21 353.945ZM805.811 391.635C833.834 393.437 837.88 394.187 839.828 398.091C840.727 399.743 843.125 409.654 845.073 420.015C850.018 446.743 851.516 494.193 851.966 660.119L852.415 797.365L768.498 797.064C722.493 797.064 684.43 796.764 684.131 796.464C682.932 795.112 686.978 424.369 688.327 414.159C690.724 397.491 694.171 395.088 719.796 391.785C733.582 389.983 779.437 389.983 805.811 391.635ZM1439.24 553.056C1450.93 559.362 1456.17 563.417 1469.81 577.081C1484.35 591.647 1497.83 609.666 1495.73 611.618C1494.39 613.119 1464.26 602.008 1456.17 597.203C1440.14 587.592 1425.75 567.321 1423.21 550.954C1422.01 543.295 1420.81 543.145 1439.24 553.056ZM415.444 720.633C434.775 726.039 449.161 734.448 463.697 748.863C479.731 764.93 486.325 777.394 489.921 798.566C495.016 828.598 486.924 855.777 464.896 883.556C449.011 903.527 429.381 914.489 401.358 918.693C381.278 921.697 363.895 918.994 343.815 909.384C318.639 897.371 299.308 871.093 293.314 840.911C290.017 823.643 290.917 798.116 295.412 785.803C300.507 772.138 312.046 754.119 321.337 745.41C344.864 723.486 386.523 712.525 415.444 720.633ZM1349.63 721.384C1362.81 724.387 1368.21 726.64 1380.05 734.148C1399.83 746.761 1420.06 774.541 1426.35 797.815C1430.1 811.78 1429.5 830.55 1424.7 843.914C1418.71 860.582 1411.07 874.246 1403.12 882.355C1395.48 890.163 1371.66 902.927 1356.82 907.281C1342.43 911.486 1322.05 909.984 1300.03 902.927C1267.06 892.416 1242.03 866.288 1233.79 833.703C1226.15 803.972 1233.79 768.684 1252.52 747.962C1275.3 722.586 1311.27 712.675 1349.63 721.384Z" fill="black"/>
<path d="M1008.26 114.591C973.646 119.546 962.108 128.405 954.915 155.284C950.719 171.351 950.119 203.785 953.866 215.948C960.01 235.769 971.398 247.932 989.231 253.638C998.222 256.641 1002.27 256.942 1028.79 256.791C1074.8 256.491 1122 252.287 1140.13 246.881C1149.57 244.028 1159.16 235.919 1163.21 227.51C1167.41 218.801 1169.2 199.731 1167.56 180.06C1165.46 152.13 1160.51 139.367 1148.52 130.658C1141.78 125.702 1115.71 117.894 1098.77 115.492C1078.54 112.789 1024.9 112.188 1008.26 114.591ZM1109.71 173.753C1118.85 174.054 1120.35 176.907 1119.15 191.022C1118.55 197.779 1117.51 203.785 1116.76 204.536C1114.06 207.539 1049.32 205.287 1022.95 201.533L1016.5 200.632V187.568C1016.5 180.36 1016.8 174.054 1017.25 173.603C1018 172.852 1091.43 173.003 1109.71 173.753Z" fill="black"/>
<path d="M178.827 165.795C160.545 167.146 147.058 169.549 133.121 173.904C121.133 177.808 117.537 179.76 112.142 185.015C99.7043 197.629 94.909 221.504 97.6063 257.692C99.7043 283.52 102.851 293.13 112.891 303.041C126.678 317.005 144.96 320.459 190.066 318.056C247.16 314.903 262.445 309.497 270.986 288.926C274.882 279.766 277.13 242.226 275.182 220.153C272.784 193.424 266.64 179.009 254.952 173.003C245.211 168.047 203.852 164.143 178.827 165.795ZM229.027 232.766C229.627 242.076 229.777 253.038 229.477 257.242L229.027 264.75L223.033 264.45C219.736 264.299 204.302 263.699 188.567 263.098C172.982 262.498 158.596 261.446 156.648 260.846C153.352 259.494 153.202 259.044 153.651 241.926L154.101 224.207L176.579 223.006C189.017 222.405 205.201 220.603 212.543 219.102C220.036 217.6 226.48 216.249 227.079 216.098C227.529 216.098 228.428 223.606 229.027 232.766Z" fill="black"/>
<path d="M369.889 351.091C348.91 352.443 318.49 356.497 306.951 359.5C294.363 362.653 277.43 371.513 270.087 378.57C257.949 390.283 254.502 403.347 249.857 455.602C245.961 499.298 248.658 521.222 260.047 539.241C269.488 554.257 284.173 561.614 309.648 564.317C330.777 566.57 472.239 563.867 502.809 560.563C558.704 554.557 578.934 541.793 581.481 510.861C581.931 504.554 581.032 488.187 579.084 468.966C569.943 381.123 569.493 378.57 559.603 367.308C547.165 353.043 532.03 350.791 449.311 350.34C414.695 350.19 379.03 350.491 369.889 351.091ZM529.033 413.708C530.531 419.714 530.382 454.851 528.883 480.679C527.534 501.551 527.384 503.052 524.238 504.254C517.794 506.656 483.178 508.909 439.571 509.81C402.857 510.41 388.771 509.96 356.552 507.407C334.524 505.605 316.841 503.503 315.642 502.602C313.994 501.1 313.694 492.842 313.994 458.755L314.443 416.561L318.939 415.359C321.487 414.609 360.598 413.708 405.854 413.257C451.259 412.807 494.417 412.056 501.76 411.305C526.785 409.053 527.834 409.053 529.033 413.708Z" fill="black"/>
<path d="M1066.26 384.277C1061.16 386.679 1055.47 390.733 1053.37 393.136C1045.73 402.296 1044.98 419.264 1050.37 461.458C1055.02 498.097 1062.36 525.727 1070.75 539.241C1084.09 560.263 1111.96 566.57 1193.33 566.57C1238.59 566.57 1249.98 565.819 1280.69 560.263C1301.07 556.659 1308.87 549.902 1309.92 534.286C1310.97 520.921 1304.67 508.909 1287.89 492.241C1272.3 476.775 1237.69 449.145 1215.06 434.43C1177.15 409.653 1128.14 386.229 1105.22 381.724C1086.94 378.27 1076.89 378.871 1066.26 384.277ZM1116.31 447.794C1142.23 456.653 1195.28 486.985 1224.05 509.659C1240.83 522.723 1241.58 523.774 1234.54 523.774C1228.7 523.774 1183.74 518.819 1135.64 512.813L1108.66 509.509L1107.76 483.982C1107.32 469.867 1106.42 455.302 1105.67 451.248C1105.07 447.343 1104.92 444.19 1105.22 444.19C1105.67 444.19 1110.61 445.842 1116.31 447.794Z" fill="black"/>
<path d="M717.548 567.921C698.516 576.33 700.465 600.956 720.845 608.765C732.833 613.42 751.714 609.215 760.855 600.206C766.25 594.65 766.55 593.899 765.8 587.442C764.751 577.982 759.357 572.576 747.069 568.822C735.98 565.369 723.991 565.068 717.548 567.921Z" fill="black"/>
<path d="M376.632 750.665C351.008 755.02 326.132 778.144 318.04 804.873C313.245 820.489 314.294 839.259 320.737 853.074C335.723 884.908 368.99 899.323 403.606 888.812C438.821 878.15 457.253 851.873 455.755 814.483C455.305 802.02 454.406 797.815 451.259 790.758C438.671 763.579 405.254 745.71 376.632 750.665ZM408.401 792.109C415.594 799.617 417.542 810.429 413.496 820.039C410.949 826.345 398.811 837.157 392.966 838.358C385.773 840.01 375.134 833.853 370.938 825.595C365.843 815.684 366.892 804.873 373.635 797.815C380.529 790.758 386.523 788.055 396.263 788.055C403.306 788.055 405.104 788.655 408.401 792.109Z" fill="black"/>
<path d="M1309.47 743.608C1278.15 751.416 1256.27 780.397 1256.27 814.182C1256.27 835.655 1263.16 851.872 1278.45 866.438C1293.73 881.153 1307.97 886.409 1329.7 885.358C1350.08 884.307 1362.07 878.751 1375.55 864.035C1385.89 852.623 1391.59 842.863 1394.88 829.949C1401.33 806.074 1392.93 778.745 1374.35 761.777C1354.87 744.208 1332.39 737.902 1309.47 743.608ZM1348.13 794.211C1359.52 803.071 1355.32 823.042 1341.24 828.448C1330.3 832.652 1315.76 828.297 1313.81 820.339C1312.16 814.032 1314.26 804.572 1318.01 800.518C1326.1 791.659 1341.09 788.505 1348.13 794.211Z" fill="black"/>
</g>
<defs>
<clipPath id="clip0_1_2">
<rect width="1590" height="972" fill="white"/>
</clipPath>
</defs>
</svg>
