<svg width="653" height="655" viewBox="0 0 653 655" fill="none" xmlns="http://www.w3.org/2000/svg">
<g clip-path="url(#clip0_379_26)">
<path d="M568.287 0.146118C561.159 0.710876 547.85 2.81586 542.414 4.25336C541.901 4.38171 539.413 4.97217 536.875 5.56256C531.849 6.71777 528.233 7.84723 522.899 9.90088C521.002 10.6453 517.719 11.8519 515.591 12.5963C513.488 13.3408 510.411 14.4446 508.796 15.035C507.18 15.6511 505.385 16.2928 504.821 16.4982C502.667 17.294 497.179 19.784 492.256 22.2227C489.435 23.6089 484.64 25.9706 481.614 27.4338C478.588 28.9227 475.357 30.5913 474.434 31.1304C473.511 31.6951 470.357 33.5177 467.382 35.1606C459.099 39.8326 456.612 41.2959 456.535 41.5269C456.484 41.6296 456.33 41.7323 456.176 41.7323C456.022 41.7323 455.253 42.1687 454.458 42.7078C452.919 43.7603 446.919 47.5338 443.534 49.5618C440.739 51.2303 435.687 54.6188 433.61 56.2104C432.687 56.9292 430.713 58.2897 429.251 59.2396C427.815 60.1637 425.174 61.9606 423.43 63.2184C421.712 64.4506 418.866 66.4529 417.147 67.6595C415.429 68.866 413.198 70.4319 412.224 71.1506C411.25 71.8694 409.66 73.0246 408.711 73.7177C407.736 74.4108 405.711 75.951 404.198 77.1575C402.685 78.3641 400.479 80.0327 399.3 80.8798C394.248 84.5507 391.094 86.9637 389.171 88.6323C388.043 89.6077 385.786 91.379 384.171 92.5342C382.555 93.715 380.657 95.1525 379.939 95.743C379.247 96.3077 378.452 96.9752 378.17 97.1805C377.914 97.3859 377.503 97.7452 377.273 97.9506C377.042 98.156 375.529 99.4138 373.913 100.723C372.298 102.032 370.452 103.547 369.81 104.086C369.169 104.651 367.374 106.088 365.836 107.32C364.323 108.553 362.477 110.041 361.759 110.658C357.245 114.482 355.938 115.612 354.578 116.793C353.732 117.512 352.886 118.282 352.655 118.487C352.424 118.692 351.706 119.283 351.091 119.771C349.835 120.746 348.501 121.901 347.552 122.8C347.245 123.108 344.911 125.084 342.424 127.189C339.936 129.294 337.475 131.399 336.987 131.861C336.5 132.323 334.936 133.761 333.526 135.044C332.115 136.354 330.551 137.766 330.064 138.151C328.859 139.126 325.192 142.438 323.089 144.466C320.653 146.827 318.678 148.521 316.473 150.216C315.422 151.037 313.78 152.346 312.857 153.116C310.088 155.452 306.985 157.737 305.575 158.482C305.011 158.79 303.164 159.534 301.472 160.176C298.6 161.228 298.164 161.305 295.061 161.459C293.112 161.562 291.189 161.536 290.445 161.382C285.189 160.304 284.804 160.176 281.983 158.533C280.445 157.634 278.521 156.428 277.752 155.838C276.983 155.247 275.367 154.092 274.162 153.271C271.469 151.422 262.469 144.671 261.597 143.849C260.315 142.643 257.699 140.564 253.904 137.689C252.699 136.79 249.647 134.428 247.109 132.452C244.57 130.475 241.518 128.165 240.313 127.343C239.108 126.522 237.159 125.084 236.005 124.16C232.851 121.67 231.056 120.284 229.364 119.077C228.543 118.487 225.851 116.562 223.389 114.79C220.927 112.994 218.619 111.351 218.286 111.094C217.927 110.863 217.081 110.195 216.363 109.631C214.747 108.347 211.619 106.114 207.747 103.444C206.131 102.34 203.233 100.261 201.336 98.8234C199.438 97.4116 195.848 94.8702 193.387 93.2016C190.925 91.5587 187.566 89.2227 185.95 88.0418C184.335 86.861 181.334 84.7817 179.283 83.3954C177.231 82.0349 174.59 80.2637 173.385 79.4679C172.18 78.6721 169.898 77.0805 168.333 75.9254C166.743 74.7958 163.743 72.8192 161.666 71.5614C159.563 70.3035 155.845 67.9932 153.383 66.4016C148.486 63.2184 144.357 60.7541 140.536 58.7261C139.177 58.0074 137.203 56.8522 136.177 56.1591C135.126 55.4916 132.895 54.1568 131.202 53.1813C129.51 52.2315 127.946 51.333 127.74 51.2047C127.535 51.0764 124.715 49.6388 121.458 48.0215C118.227 46.4043 114.534 44.479 113.252 43.7089C111.996 42.9645 110.072 41.9376 109.021 41.4243C107.149 40.5001 97.6868 36.6238 91.8402 34.3649C88.3527 33.03 84.4806 31.5154 83.7626 31.233C83.4806 31.1047 82.9164 30.8737 82.4805 30.694C80.5573 29.9238 73.8901 28.1013 70.3 27.3825C57.1965 24.7897 42.5543 23.3265 36.0923 23.994C26.0915 25.0464 17.3985 27.6135 13.2956 30.771C11.2185 32.3882 4.91036 39.9354 3.52564 42.5024C2.67942 44.0683 1.4742 48.7147 0.679265 53.515C-1.11575 64.425 0.781837 84.1656 4.78215 95.897C7.47466 103.829 7.96188 105.344 9.39789 109.887C10.1928 112.429 10.9365 114.739 11.039 115.021C11.1673 115.304 11.6545 116.51 12.0904 117.717C13.2956 120.874 15.4496 125.726 17.578 130.013C18.5781 132.067 19.7577 134.505 20.1423 135.43C22.681 141.18 24.835 145.621 26.2966 148.136C27.8096 150.703 31.2714 156.993 33.3741 160.972C35.323 164.617 37.3488 168.134 38.7591 170.213C40.6824 173.062 41.6824 174.705 43.58 178.12C44.5801 179.865 46.3751 182.92 47.606 184.871C48.8368 186.822 49.9651 188.67 50.1446 188.952C50.2985 189.235 50.478 189.517 50.5549 189.594C51.1447 190.185 54.068 194.908 56.1964 198.707C56.658 199.554 58.0427 201.736 59.2479 203.533C62.1712 207.897 63.4277 209.823 66.0946 214.11C67.3255 216.086 69.0948 218.807 70.018 220.142C72.7874 224.198 76.7877 230.205 77.6083 231.54C78.9417 233.747 83.6601 240.755 84.5319 241.834C84.9935 242.398 86.5834 244.76 88.045 247.096C89.5323 249.432 92.43 253.822 94.5327 256.851C96.6354 259.88 99.5844 264.244 101.123 266.529C102.662 268.839 104.38 271.303 104.995 272.048C105.585 272.792 106.277 273.691 106.482 274.05C106.713 274.409 107.149 274.974 107.457 275.334C107.764 275.667 108.277 276.36 108.559 276.874C109.303 278.08 114.047 284.626 115.97 287.091C116.816 288.169 118.329 290.223 119.329 291.634C122.278 295.767 122.561 296.152 124.227 298.437C127.176 302.442 129.125 304.957 130.971 307.165C131.971 308.372 133.741 310.605 134.92 312.171C136.1 313.711 137.767 315.816 138.613 316.817C143.613 322.644 146.921 328.24 149.101 334.504C149.87 336.686 150.024 337.559 150.178 340.306C150.358 343.514 150.358 343.566 149.409 346.8C148.229 350.908 145.921 356.221 144.049 359.25C143.254 360.534 142.613 361.638 142.613 361.715C142.613 361.792 142.485 361.997 142.357 362.177C142.203 362.357 141.28 363.691 140.28 365.18C139.305 366.669 137.869 368.749 137.1 369.801C136.356 370.853 134.946 372.881 133.972 374.293C131.407 378.067 126.407 384.972 125.766 385.64C125.612 385.819 124.356 387.668 122.971 389.747C121.612 391.852 119.124 395.394 117.483 397.653C115.842 399.912 112.893 404.122 110.944 407.023C106.79 413.184 106.944 412.953 104.098 416.778C102.892 418.395 101.277 420.706 100.533 421.912C99.7895 423.119 98.4561 425.07 97.6099 426.276C93.7634 431.718 92.2248 434.003 88.0963 440.292C86.7885 442.294 85.0961 444.784 84.3524 445.811C81.9933 448.994 79.1725 453.204 77.2749 456.311C75.4799 459.288 74.4286 460.88 71.3001 465.347C70.377 466.656 69.3256 468.222 68.9922 468.812C67.5306 471.328 60.8121 481.853 59.53 483.65C58.2991 485.395 55.94 489.194 54.863 491.222C53.6834 493.43 52.7602 494.945 50.7601 498.025C49.8369 499.437 48.8112 501.08 48.4778 501.67C48.1445 502.261 47.1444 503.955 46.2469 505.444C45.375 506.933 44.657 508.191 44.657 508.242C44.657 508.653 39.7336 517.381 38.3745 519.409C37.4257 520.769 35.1178 525.005 33.1946 528.83C31.297 532.629 29.6302 535.915 29.502 536.146C28.3737 538.148 25.1171 545.105 24.1426 547.569C22.681 551.266 20.809 556.964 20.3987 558.992C20.3218 559.352 19.9885 560.661 19.6551 561.945C17.2703 570.981 16.9113 572.931 16.4241 580.042C15.6548 591.158 17.7062 601.734 22.9374 613.671C24.476 617.162 25.7068 619.19 28.7584 623.066C30.3226 625.068 34.7588 629.946 36.3487 631.409C38.195 633.129 39.1438 633.95 39.3233 633.95C39.4259 633.95 39.6566 634.104 39.8361 634.284C40.0156 634.438 40.6824 634.926 41.3234 635.362C41.9645 635.773 42.5287 636.184 42.6056 636.261C43.0159 636.697 45.2468 637.955 47.9393 639.315C51.2986 641.01 57.6837 643.269 60.6839 643.833C61.7096 644.039 63.2995 644.372 64.197 644.578C69.223 645.733 74.7106 646.041 80.6855 645.476C82.0958 645.322 83.8396 645.168 84.5319 645.091C85.9423 644.963 91.0196 643.885 92.8659 643.346C93.507 643.14 94.943 642.73 96.0713 642.421C100.661 641.164 105.79 639.187 107.585 638.006C109.79 636.543 115.996 632.667 116.124 632.667C116.868 632.667 125.74 625.992 127.792 623.913C128.048 623.656 129.356 622.553 130.741 621.423C132.125 620.319 134.767 617.958 136.613 616.212C138.434 614.466 141.613 611.437 143.665 609.512C145.691 607.587 149.614 603.71 152.358 600.912C155.101 598.114 158.23 594.957 159.281 593.879C164.769 588.359 186.258 566.077 191.104 560.918C192.284 559.66 195.053 556.759 197.259 554.5C199.438 552.241 201.823 549.751 202.515 548.981C203.208 548.211 205.644 545.695 207.952 543.359C210.234 541.049 213.003 538.174 214.106 536.967C215.183 535.761 217.747 533.091 219.799 531.037C221.85 528.984 224.158 526.596 224.902 525.749C225.645 524.902 228.287 522.13 230.774 519.588C233.261 517.047 237.877 512.298 241.057 509.063C244.211 505.803 249.134 500.797 251.955 497.897C254.802 494.996 257.648 492.044 258.289 491.351C258.956 490.632 261.238 488.322 263.418 486.191C265.597 484.086 268.521 481.134 269.931 479.645C271.341 478.182 273.316 476.359 274.29 475.64C275.29 474.922 276.547 473.972 277.111 473.535C279.034 472.047 284.009 468.607 284.701 468.247C285.086 468.042 286.753 467.631 288.42 467.323C291.24 466.835 291.727 466.81 294.933 467.092C298.369 467.4 298.42 467.426 301.215 468.838C303.754 470.121 306.395 471.61 306.729 471.969C306.806 472.047 308.011 472.868 309.421 473.818C310.832 474.768 312.473 475.923 313.062 476.385C314.857 477.797 320.396 482.366 321.345 483.239C321.832 483.675 323.448 484.984 324.91 486.165C328.961 489.374 331.115 491.171 332.372 492.352C333.013 492.942 336.064 495.509 339.167 498.025C342.27 500.541 345.45 503.21 346.219 503.955C347.911 505.546 348.911 506.394 350.963 507.908C352.245 508.884 354.963 511.143 360.835 516.123C362.015 517.124 362.579 517.56 366.092 520.281C367.22 521.154 369.067 522.694 370.195 523.696C372.811 525.955 374.606 527.495 376.478 528.958C378.401 530.473 385.735 536.479 389.966 539.945C391.786 541.459 394.864 543.95 396.736 545.515C398.633 547.056 400.864 548.955 401.685 549.674C402.531 550.418 404.582 552.087 406.3 553.396C407.993 554.705 410.403 556.656 411.609 557.709C414.404 560.122 414.429 560.148 416.891 561.97C418.019 562.817 419.019 563.562 419.173 563.69C419.891 564.229 422.302 566.231 425.174 568.645C427.533 570.647 433.431 575.293 434.687 576.14C435.046 576.371 435.38 576.628 435.457 576.731C435.585 576.859 439.457 579.991 440.534 580.812C440.816 581.018 441.483 581.557 442.021 581.993C443.714 583.379 446.15 585.279 446.893 585.818C447.278 586.1 447.919 586.588 448.304 586.896C448.688 587.23 449.047 587.487 449.15 587.487C449.329 587.487 452.458 589.874 455.971 592.723C459.971 595.958 459.817 595.855 464.254 598.833C465.613 599.757 469.767 603.017 470.075 603.402C470.331 603.736 474.075 606.406 476.614 608.074C478.024 609.024 481.204 611.232 483.665 613.029C489.794 617.444 491.204 618.394 495.205 620.858C497.102 622.039 499.308 623.477 500.077 624.067C502.564 625.941 510.514 631.126 510.924 631.126C511.129 631.126 518.284 635.388 520.438 636.8C523.976 639.11 540.875 647.325 547.773 650.071C549.491 650.764 550.286 651.021 553.286 651.894C554.132 652.151 556.543 652.69 559.697 653.331C560.825 653.562 562.21 653.87 562.8 653.973C564.723 654.41 571.98 655 575.211 655C578.673 655 585.084 654.435 587.135 653.973C587.853 653.819 588.93 653.562 589.571 653.434C591.084 653.1 594.084 652.253 596.623 651.457C600.7 650.2 609.855 644.09 614.24 639.726C618.548 635.465 620.753 632.359 624.087 625.864C625.292 623.528 627.471 617.316 628.01 614.697C628.164 613.927 628.523 612.182 628.779 610.847C629.702 606.252 629.908 603.454 629.728 598.602C629.497 592.621 629.241 590.31 628.42 586.588C628.061 584.894 627.728 583.302 627.702 583.046C627.677 582.815 627.6 582.609 627.523 582.609C627.446 582.609 627.369 582.404 627.343 582.147C627.266 581.197 626.087 576.243 625.728 575.345C625.6 575.036 625.189 573.727 624.805 572.469C623.676 568.619 621.061 562.843 617.471 556.169C616.983 555.245 615.471 552.292 614.111 549.623C612.778 546.927 611.368 544.309 611.009 543.77C610.65 543.231 610.342 542.743 610.342 542.692C610.342 542.64 609.829 541.87 609.214 540.972C608.598 540.073 606.803 537.275 605.213 534.734C601.239 528.342 599.777 526.237 596.443 521.847C594.828 519.768 593.135 517.458 592.648 516.764C590.571 513.684 585.827 507.497 584.494 506.111C584.16 505.752 582.724 503.852 581.288 501.876C579.878 499.899 578.647 498.23 578.57 498.153C578.493 498.076 577.852 497.332 577.134 496.485C576.442 495.638 575.647 494.714 575.391 494.431C575.108 494.149 574.185 493.045 573.339 491.992C572.467 490.94 571.647 489.939 571.493 489.785C571.365 489.631 570.954 489.143 570.595 488.681C568.416 485.832 565.774 482.571 564.031 480.569C562.902 479.286 561.595 477.745 561.107 477.104C560.62 476.462 559.825 475.486 559.338 474.896C556.902 472.124 555.568 470.558 555.235 470.07C555.03 469.762 554.799 469.479 554.697 469.402C554.62 469.325 554.056 468.632 553.414 467.862C552.773 467.092 551.953 466.091 551.594 465.68C550.748 464.756 547.44 460.751 545.337 458.107C544.491 457.055 543.593 455.951 543.337 455.669C543.08 455.386 542.593 454.873 542.285 454.514C538.644 450.381 537.516 449.046 535.336 446.299C533.951 444.528 532.644 442.911 532.413 442.679C530.9 441.165 527.669 437.366 525.848 435.004C524.335 433.053 524.233 432.899 522.104 430.383C521.207 429.331 519.796 427.765 518.976 426.918C518.155 426.071 516.771 424.453 515.899 423.324C514.437 421.399 511.898 418.241 510.642 416.778C510.026 416.034 508.283 413.954 504.308 409.205C502.795 407.357 501.051 405.278 500.462 404.584C499.231 403.121 497.718 401.324 493.923 396.755C492.461 394.984 491.179 393.495 491.102 393.418C491.025 393.341 489.922 392.006 488.691 390.466C487.461 388.9 485.845 387 485.101 386.23C484.358 385.46 482.332 383.021 480.588 380.839C478.845 378.657 476.947 376.347 476.383 375.705C473.408 372.394 471.793 370.468 469.587 367.645C468.254 365.925 466.177 363.409 464.972 361.997C463.766 360.611 462.1 358.634 461.279 357.633C457.74 353.244 456.227 351.421 455.792 350.933C455.535 350.651 455.048 350.06 454.714 349.65C454.407 349.213 453.355 348.032 452.432 346.98C450.945 345.337 449.688 343.694 445.739 338.303C443.637 335.428 438.534 324.852 438.534 323.337C438.534 322.413 439.559 316.92 439.893 316.15C440.175 315.482 440.226 315.328 440.431 314.481C441.047 311.94 442.072 309.937 444.252 306.96C447.483 302.57 450.663 298.694 452.919 296.358C453.971 295.28 455.561 293.611 456.458 292.636C457.356 291.66 460.638 288.246 463.766 285.063C466.895 281.88 472.665 275.924 476.614 271.868C480.563 267.786 484.486 263.808 485.307 263.037C486.153 262.242 488.409 259.983 490.307 258.032C495.487 252.718 507.308 240.91 510.232 238.111C511.616 236.751 514.001 234.389 515.514 232.849C517.027 231.283 521.284 227.073 524.976 223.479C528.695 219.885 533.362 215.316 535.362 213.339C537.362 211.337 540.183 208.642 541.619 207.307C544.875 204.303 545.106 204.098 549.209 200.119C551.03 198.348 552.979 196.525 553.543 196.038C554.107 195.575 556.415 193.368 558.671 191.16C560.928 188.952 563.441 186.591 564.261 185.898C566.056 184.383 568.723 181.893 572.288 178.428C573.724 177.016 575.211 175.604 575.57 175.27C577.801 173.345 581.058 170.341 583.289 168.134C584.725 166.722 587.032 164.54 588.417 163.231C591.546 160.356 601.085 150.909 604.572 147.238C605.957 145.749 608.342 143.259 609.829 141.719C611.316 140.153 613.111 138.202 613.804 137.355C614.522 136.508 615.137 135.763 615.214 135.686C615.291 135.609 616.265 134.454 617.394 133.119C618.522 131.784 619.548 130.552 619.702 130.398C620.035 130.064 622.035 127.728 623.42 126.085C624.01 125.392 624.676 124.52 624.907 124.16C625.805 122.748 629.01 118.359 630.882 116.048C632.78 113.635 634.267 111.428 635.985 108.347C636.78 106.935 638.549 103.88 639.883 101.544C643.011 96.1024 645.242 91.764 645.934 89.8387C646.242 89.0173 646.832 87.3487 647.268 86.1422C648.14 83.7805 649.96 77.671 650.166 76.4901C650.242 76.0794 650.371 75.566 650.448 75.3606C650.525 75.1552 650.653 74.6932 650.704 74.3338C650.832 73.6407 651.012 72.8962 651.525 70.9196C652.781 65.9395 653.345 58.6748 652.781 54.1824C652.217 49.6131 650.96 43.9913 649.935 41.3472C649.422 40.0894 648.73 38.2924 648.345 37.3683C647.345 34.8269 645.14 30.3602 644.473 29.5131C644.165 29.1024 642.934 27.7675 641.806 26.561C640.652 25.3545 638.447 23.0185 636.882 21.3499C633.78 18.0128 631.985 16.4982 629.061 14.7269C628.01 14.1108 625.164 12.3396 622.728 10.8507C620.317 9.33612 618.214 8.10394 618.06 8.10394C617.907 8.10394 617.778 7.97559 617.778 7.84723C617.778 7.69324 617.522 7.59052 617.189 7.59052C616.855 7.59052 616.496 7.48785 616.342 7.3595C616.086 7.10278 612.701 5.71661 610.983 5.15186C604.906 3.14954 598.777 1.58368 594.956 1.07025C593.341 0.839233 591.084 0.531189 589.956 0.377136C587.315 0.0177612 572.108 -0.136292 568.287 0.146118Z" fill="#FFF9F0"/>
</g>
<defs>
<clipPath id="clip0_379_26">
<rect width="653" height="655" fill="white"/>
</clipPath>
</defs>
</svg>
