<svg width="291" height="193" viewBox="0 0 291 193" fill="none" xmlns="http://www.w3.org/2000/svg">
<path d="M182.221 0.322853C174.403 0.512428 161.278 0.702003 152.986 0.749397C139.908 0.796791 116.643 1.60252 104.276 2.45562C97.6898 2.92957 91.4353 4.11445 88.7344 5.39411C86.6022 6.38941 86.0336 6.95815 85.2281 8.80656C83.4276 12.7877 82.9537 16.1054 82.3851 27.3854L81.8165 38.5706L78.9736 39.6607C72.9085 41.9831 61.2997 47.5283 57.8882 49.7559C53.5289 52.5996 48.8854 57.2443 45.9003 61.6994C44.7157 63.5004 41.0198 70.1831 37.7504 76.4867C22.3036 106.203 14.059 117.91 2.07109 127.294C-0.250672 129.048 -0.629735 130.849 0.981284 132.318C2.97137 134.119 8.65732 131.275 15.054 125.256C24.1515 116.678 32.7752 103.597 45.3317 79.3304C54.9978 60.6093 57.2722 58.1922 72.0083 50.7986C75.5146 49.0923 79.1631 47.1018 80.1581 46.4856C81.1532 45.8695 82.0534 45.3481 82.1482 45.3481C82.243 45.3481 82.4799 51.2725 82.6694 58.4766C82.859 65.728 83.2854 74.4013 83.5697 77.7663L84.1383 83.8329L79.5895 86.1553C77.0309 87.3875 72.5295 89.2833 69.5444 90.326C62.6738 92.6958 61.1576 93.4541 61.1576 94.639C61.1576 96.5348 62.5317 97.1509 66.1328 96.8665C72.9085 96.2978 80.9163 93.5015 90.2507 88.3828C99.9642 83.0746 115.364 75.3492 119.296 73.8326C123.987 72.0315 127.825 71.842 130.194 73.3112C132.374 74.5909 132.848 75.8231 132.611 79.4252C132.185 87.0084 127.209 91.9848 110.815 101.227C103.234 105.492 98.2584 109.189 94.3256 113.455C91.3405 116.678 90.2507 118.336 83.2854 130.754C81.3901 134.024 78.8788 138.053 77.6468 139.617C72.6242 146.015 64.7113 150.849 54.9978 153.409C52.0127 154.215 48.6011 155.352 47.4165 155.921C45.616 156.821 45.2843 157.2 45.1422 158.527C45 159.807 45.1895 160.139 46.3267 160.565C48.2694 161.371 55.2347 161.229 58.9306 160.328C68.6441 158.006 80.3003 149.712 86.2705 140.754L88.5449 137.342L89.5873 138.479C91.1983 140.186 95.0364 141.607 98.8744 141.892C100.817 142.034 102.381 142.224 102.381 142.271C102.381 142.366 101.67 143.503 100.77 144.83C99.8694 146.157 99.0165 147.864 98.827 148.669C98.6375 149.617 98.0215 150.376 97.0738 150.849C96.3157 151.276 92.7146 154.404 89.1609 157.864C78.4523 168.196 72.9085 172.367 66.2749 175.116C61.8209 176.964 57.4617 177.865 48.3168 178.718C40.167 179.476 36.9923 180.377 31.2116 183.362C25.573 186.301 23.346 189.476 25.5256 191.467C26.8524 192.652 28.0369 192.462 33.8176 190.093C40.7829 187.201 42.4887 186.775 51.1124 185.874C68.6441 184.073 77.3152 179.713 92.1934 165.21L98.827 158.717L100.012 160.613C103.044 165.542 110.057 166.916 114.985 163.551C115.932 162.888 116.785 162.414 116.833 162.509C116.88 162.603 117.401 163.504 117.922 164.547C119.77 168.243 122.803 169.997 127.352 169.997C131.521 169.997 135.359 168.006 139.861 163.409L143.509 159.665L145.31 161.513C149.195 165.495 155.497 166.585 160.14 164.073C163.22 162.366 165.353 159.712 167.295 154.973C168.717 151.56 170.091 146.252 170.138 144.119C170.138 143.171 170.375 143.124 181.179 142.792C187.196 142.603 200.274 142.129 210.177 141.75C221.075 141.276 237.612 140.991 252.111 140.991C278.029 141.039 280.019 140.897 284.189 138.432C288.027 136.204 290.159 131.891 290.823 124.83C291.012 122.697 291.059 98.241 290.917 70.4675C290.68 26.6745 290.538 19.3756 289.875 15.3471C288.264 5.91546 285.421 2.45562 278.124 1.31814C270.922 0.133263 215.958 -0.388084 182.221 0.322853ZM232.399 7.90606C239.223 8.14303 251.637 8.47478 260.071 8.66438C268.458 8.85395 275.281 9.13833 275.234 9.3753C274.855 10.2758 264.904 19.0439 254.954 27.101C241.686 37.8597 234.01 44.495 220.127 56.9599C205.296 70.3253 196.341 77.4346 191.792 79.4726C189.044 80.7522 185.253 80.6574 181.937 79.3304C176.109 76.9132 152.986 60.1828 141.709 50.2298C133.132 42.694 129.436 39.6607 121.334 33.689C114.369 28.5229 110.625 25.4422 104.039 19.5178C101.717 17.3851 98.3532 14.494 96.6 13.0247C93.7096 10.6076 93.5201 10.3232 94.5152 10.0862C95.0837 9.94404 105.887 9.3753 118.538 8.85395C131.142 8.3326 142.846 7.85865 144.552 7.76386C153.033 7.43211 221.691 7.52689 232.399 7.90606ZM106.882 30.6083C109.488 32.8832 115.032 37.4332 119.202 40.7034C123.371 43.9737 130.384 49.8033 134.791 53.6897C142.325 60.325 149.764 66.5811 152.18 68.2873L153.27 69.0456L149.242 73.169C147.063 75.4914 144.078 78.6194 142.656 80.1835L140.05 83.0746V78.9986C140.003 75.8231 139.766 74.4487 138.913 72.4581C135.833 65.491 127.873 63.3108 118.017 66.6759C112.805 68.4295 102.902 73.0742 95.6997 77.1502C92.9515 78.6668 90.5824 79.9465 90.4876 79.9465C90.3928 79.9465 90.2507 76.0601 90.1559 71.2732C90.1085 66.5337 89.8242 58.1448 89.5399 52.6944C89.0187 42.0779 88.8766 17.7168 89.3504 15.5841C89.5873 14.3044 89.8242 14.4466 95.8893 20.3709C99.3482 23.736 104.276 28.3807 106.882 30.6083ZM281.962 14.6361C281.962 14.9679 282.151 17.0059 282.436 19.1387C283.004 24.3995 283.147 125.304 282.531 126.868C282.104 127.958 281.488 127.436 268.884 114.734C261.635 107.388 252.679 98.7623 249.031 95.5395C245.382 92.3166 237.564 84.923 231.641 79.1408C225.718 73.3112 220.648 68.5717 220.364 68.5717C220.127 68.5717 219.89 68.3821 219.89 68.1451C219.89 67.2446 241.876 47.9075 255.191 37.1488C267.842 26.8641 273.623 21.8876 277.792 17.7168C281.393 14.0674 281.962 13.6882 281.962 14.6361ZM224.96 81.6053C234.484 91.6057 235.764 92.8854 245.951 102.08C252.632 108.099 276.56 132.413 276.181 132.792C276.039 132.934 262.63 133.124 246.377 133.219C229.225 133.313 210.556 133.74 201.885 134.166C167.864 135.825 122.85 136.252 102.76 135.067L97.7372 134.783L105.366 126.536C109.583 121.986 116.927 114.734 121.76 110.374C127.446 105.208 134.317 98.2884 141.519 90.3734C147.537 83.7381 153.791 77.0554 155.355 75.4914L158.198 72.7425L165.684 78.0033C169.854 80.9418 175.161 84.2595 177.53 85.4443C181.226 87.2927 182.316 87.6245 185.633 87.8615C192.74 88.3354 197.952 85.8235 209.703 76.2497C212.593 73.8799 215.152 71.9841 215.436 72.0315C215.721 72.0789 219.985 76.3919 224.96 81.6053ZM112.805 110.706C110.057 113.265 104.513 119.047 100.533 123.503C93.9466 130.849 93.141 131.56 92.8094 130.659C92.5251 129.853 92.8568 128.811 94.1835 126.299C97.9741 119.284 102.618 114.829 111.952 109.189C114.89 107.436 117.401 106.014 117.543 106.014C117.685 106.014 115.553 108.099 112.805 110.706ZM121.334 143.314C121.334 143.456 120.765 144.309 120.102 145.209C118.538 147.295 116.69 151.513 116.311 153.93C116.027 155.636 115.743 155.968 113.705 157.011C111.336 158.196 108.635 158.48 107.119 157.674C106.645 157.437 105.982 156.442 105.698 155.494C104.702 152.508 106.077 148.432 109.346 144.878L111.004 142.982H116.169C119.012 142.982 121.334 143.124 121.334 143.314ZM140.998 144.262C140.808 144.736 140.524 146.726 140.382 148.669C140.145 152.224 140.145 152.224 137.255 155.494C135.644 157.295 133.843 159.333 133.18 159.949C127.92 165.115 122.708 163.172 123.371 156.253C123.656 153.172 124.84 150.139 127.399 146.205L129.152 143.456H135.264C140.856 143.456 141.329 143.503 140.998 144.262ZM162.32 148.243C160.33 154.12 158.719 156.963 156.776 157.959C152.464 160.186 147.394 155.02 147.394 148.48C147.394 143.077 146.779 143.456 155.971 143.456H163.931L162.32 148.243Z" fill="#FFF9F0"/>
</svg>
