<svg width="1178" height="1158" viewBox="0 0 1178 1158" fill="none" xmlns="http://www.w3.org/2000/svg">
<path d="M756.5 349L608 34H566.5L521 151.5L445 387H357.5L31 421L53.5 467L300.5 679.5V786L213 1078.5L239.5 1105L540 960.5L665 930L908 1078.5L1026 1124L908 808.5V729L1147.5 467V421L1105.5 387L756.5 349Z" fill="#FCC87A" stroke="#FCC87A"/>
<path d="M582.481 0.234305C581.262 0.478088 579.068 0.843763 577.606 1.04692C567.896 2.6315 557.253 6.41014 548.437 11.4483C538.525 17.096 534.097 20.5495 525.403 29.2445C518.375 36.3142 513.175 42.5713 508.747 49.2753C503.994 56.5075 501.637 60.2455 501.637 60.5706C501.637 60.7331 500.459 62.8053 499.037 65.2025C494.975 71.9877 481.691 99.2508 478.4 107.418C477.709 109.124 476.734 111.359 476.247 112.374C475.272 114.325 458.047 157.352 457.56 159.1C457.397 159.668 457.031 160.643 456.706 161.334C456.097 162.716 454.391 167.307 451.913 174.336C450.938 177.018 450.003 179.577 449.76 180.024C449.516 180.471 448.744 182.665 448.013 184.9C447.281 187.135 446.428 189.491 446.103 190.101C444.519 193.27 429.285 238.898 427.7 245.236C427.457 246.252 426.644 248.974 425.872 251.331C425.141 253.687 424.044 257.344 423.435 259.457C422.866 261.57 421.85 265.064 421.2 267.177C419.697 272.296 418.316 277.497 415.31 289.523C414.782 291.636 413.929 294.927 413.441 296.837C412.954 298.746 412.344 301.387 412.06 302.728C410.475 310.407 407.469 319.224 405.032 323.328C403 326.782 400.726 328.894 397.191 330.682C391.341 333.607 386.466 334.217 368.185 334.217C355.957 334.258 339.463 334.664 320.857 335.436C315.373 335.639 302.211 336.005 291.607 336.248C272.676 336.655 251.673 337.508 242.452 338.239C239.892 338.483 234.855 338.849 231.28 339.093C222.708 339.661 200.405 341.449 192.483 342.18C180.296 343.318 169.977 344.375 169.368 344.537C169.002 344.659 166.727 344.943 164.249 345.187C153.768 346.203 120.13 351.404 113.062 353.11C111.721 353.435 109.081 354.004 107.171 354.37C100.102 355.71 98.5994 356.076 86.4526 359.367C81.0495 360.83 69.7152 364.69 65.4496 366.559C63.1746 367.534 61.184 368.347 61.0621 368.347C60.534 368.347 52.0841 372.572 49.1997 374.279C47.5341 375.254 46.0716 376.066 45.9904 376.066C45.5029 376.066 35.5904 382.892 33.6404 384.599C32.4217 385.655 30.7561 387.037 29.9842 387.687C27.0999 390.084 21.6968 395.813 18.6905 399.632C14.0187 405.605 8.20936 415.803 5.69063 422.385C0.856286 435.143 -0.971827 449.811 0.490663 463.706C0.856286 467.119 1.30316 470.329 1.50628 470.817C1.66878 471.345 1.95315 472.645 2.11565 473.783C2.5219 476.708 5.04063 485.281 6.82812 490.035C9.14373 496.048 12.1093 502.102 15.6031 507.993C18.4468 512.666 19.7062 514.657 22.5499 518.923C27.2217 525.83 42.3748 542.326 48.7935 547.446C50.3372 548.665 52.7341 550.655 54.0747 551.915C56.3903 553.947 60.0465 556.831 66.3434 561.504C67.684 562.52 70.0402 564.267 71.6246 565.445C73.1683 566.583 75.0777 567.964 75.8902 568.492C76.662 568.98 78.2464 570.077 79.3433 570.889C80.4808 571.661 83.6495 573.856 86.4526 575.725C89.2557 577.634 92.1807 579.584 92.9525 580.153C93.7244 580.681 96.5681 582.55 99.2494 584.298C101.931 586.004 104.856 587.954 105.749 588.604C106.643 589.254 108.187 590.27 109.202 590.839C110.218 591.449 112.777 593.074 114.89 594.455C117.002 595.837 120.943 598.396 123.624 600.143C126.305 601.85 129.23 603.8 130.124 604.45C131.018 605.1 132.684 606.197 133.78 606.847C134.918 607.538 136.827 608.838 138.046 609.732C139.265 610.626 141.743 612.333 143.53 613.511C148.608 616.924 155.027 621.393 157.18 623.018C158.236 623.872 159.902 625.091 160.877 625.781C165.468 629.032 177.371 638.011 185.699 644.512C192.321 649.672 205.402 660.48 210.399 664.949C212.552 666.859 216.289 670.15 218.727 672.263C226.08 678.682 234.611 687.215 238.592 692.171C246.514 702.045 249.927 709.683 250.455 718.581C250.698 722.847 250.089 730.12 249.195 733.574C248.87 734.833 248.22 737.353 247.733 739.222C246.392 744.422 238.877 766.119 234.773 776.48C233.636 779.365 232.255 782.94 231.686 784.403C229.33 790.66 225.308 801.021 224.577 802.686C224.13 803.702 223.155 806.181 222.383 808.253C221.57 810.284 220.677 812.56 220.352 813.332C219.255 815.81 211.089 836.572 209.952 839.863C208.611 843.601 206.58 849.005 204.671 853.678C201.664 861.072 191.386 891.423 187.771 903.45C186.755 906.904 185.455 911.129 184.968 912.795C183.424 917.752 177.696 939.245 176.64 944.08C176.477 944.852 175.949 947.047 175.502 948.956C174.243 953.994 173.39 957.732 172.78 960.942C172.496 962.486 171.968 965.168 171.602 966.834C169.246 978.495 168.921 980.364 167.133 992.837C164.615 1010.19 164.249 1015.1 164.249 1030.42C164.249 1049.35 165.265 1056.91 169.774 1071.86C173.836 1085.31 180.539 1097.62 189.111 1107.58C196.261 1115.87 201.746 1120.46 211.577 1126.47C217.833 1130.29 223.114 1132.69 230.427 1135.08C241.152 1138.58 246.961 1139.72 257.605 1140.33C274.342 1141.26 293.761 1138.5 313.139 1132.4C318.014 1130.86 320.654 1130.05 323.701 1129.15C324.717 1128.87 327.357 1127.93 329.592 1127.12C353.316 1118.34 374.279 1109.65 402.513 1096.93C422.866 1087.79 426.36 1086.17 433.753 1082.59C437.816 1080.6 441.269 1078.97 441.391 1078.97C441.675 1078.97 464.384 1067.6 464.872 1067.19C465.116 1067.03 467.553 1065.69 470.356 1064.22C475.15 1061.75 485.916 1056.02 491.278 1053.17C500.134 1048.38 509.397 1043.38 513.297 1041.23C515.815 1039.89 517.968 1038.75 518.131 1038.75C518.253 1038.75 519.878 1037.86 521.706 1036.8C523.493 1035.7 525.728 1034.44 526.622 1034C527.515 1033.55 530.359 1032.05 532.918 1030.62C535.478 1029.2 538.687 1027.45 540.028 1026.76C541.368 1026.03 543.928 1024.65 545.715 1023.72C547.503 1022.74 550.265 1021.28 551.809 1020.47C555.709 1018.39 560.137 1016.04 563.996 1013.96C565.784 1012.99 569.724 1010.92 572.731 1009.37C575.737 1007.83 578.418 1006.41 578.621 1006.2C578.865 1006.04 582.602 1004.09 586.949 1001.86C591.296 999.622 595.602 997.428 596.496 996.941C600.68 994.706 609.699 990.643 615.387 988.368C628.427 983.126 635.293 981.623 644.068 982.029C646.993 982.192 650.446 982.558 651.746 982.883C654.833 983.695 662.349 986.661 666.086 988.53C670.717 990.887 683.596 998.728 691.111 1003.85C694.849 1006.41 698.911 1009.13 700.089 1009.9C703.583 1012.26 707.686 1015.06 709.636 1016.44C710.652 1017.17 713.902 1019.41 716.908 1021.44C722.758 1025.42 730.842 1030.91 734.376 1033.39C735.595 1034.2 737.505 1035.54 738.683 1036.31C742.948 1039.2 746.442 1041.59 748.229 1042.85C751.154 1044.97 770.086 1057.68 774.473 1060.53C775.57 1061.26 777.276 1062.4 778.292 1063.09C779.307 1063.82 781.298 1065.16 782.72 1066.09C784.182 1067.03 786.579 1068.61 788.082 1069.63C789.585 1070.64 791.698 1072.03 792.754 1072.72C793.851 1073.45 795.557 1074.59 796.573 1075.28C798.442 1076.62 801.163 1078.4 806.77 1082.02C813.31 1086.25 814.935 1087.34 816.601 1088.56C817.535 1089.21 820.054 1090.84 822.166 1092.14C824.279 1093.44 826.879 1095.06 827.935 1095.75C828.991 1096.49 832.404 1098.68 835.573 1100.71C838.741 1102.7 842.519 1105.18 844.023 1106.16C848.044 1108.84 871.729 1123.06 876.4 1125.62C886.15 1130.98 889.522 1132.77 891.432 1133.7C901.628 1138.74 906.788 1141.22 908.494 1141.87C909.632 1142.32 912.353 1143.45 914.588 1144.39C916.822 1145.32 920.681 1146.79 923.119 1147.64C925.597 1148.49 928.035 1149.35 928.603 1149.59C933.478 1151.58 947.981 1155.28 957.041 1156.86C963.256 1157.92 964.516 1158 974.509 1158C988.281 1158 994.334 1157.02 1005.99 1152.96C1020.29 1147.96 1032.2 1139.64 1042.03 1127.73C1043.81 1125.62 1050.07 1115.5 1051.25 1112.9C1058.97 1095.79 1060.92 1079.99 1058.24 1057.03C1057.02 1046.75 1049.38 1018.23 1044.71 1006.65C1044.02 1004.99 1043.25 1002.79 1042.92 1001.78C1042.64 1000.76 1041.58 997.672 1040.57 994.869C1039.55 992.065 1037.72 986.946 1036.46 983.492C1035.2 980.038 1033.37 974.96 1032.4 972.278C1031.42 969.556 1029.72 965.086 1028.62 962.324C1027.52 959.561 1026.31 956.27 1025.9 955.051C1025.49 953.832 1023.79 949.241 1022.04 944.893C1020.33 940.546 1018.59 935.954 1018.18 934.735C1017.77 933.517 1015.87 928.478 1013.92 923.562C1011.97 918.646 1010.06 913.608 1009.65 912.389C1009.24 911.17 1007.66 906.944 1006.12 903.044C1004.57 899.143 1002.66 894.268 1001.93 892.277C1001.2 890.245 1000.06 887.157 999.372 885.369C998.681 883.582 997.584 880.616 996.893 878.787C996.203 876.918 995.309 874.643 994.903 873.708C994.456 872.733 993.806 870.946 993.4 869.727C992.993 868.508 991.856 865.379 990.84 862.82C989.865 860.26 988.322 856.237 987.468 853.881C986.615 851.524 984.99 847.055 983.853 843.926C976.175 822.92 969.837 804.515 966.831 794.56C966.303 792.894 965.45 790.132 964.962 788.466C962.728 781.315 960.25 771.157 959.234 765.103C958.016 757.627 958.056 752.426 959.397 746.007C960.412 741.334 963.744 734.305 967.319 729.348C974.062 720.044 978.653 715.25 1034.02 659.83C1077.17 616.68 1095.37 598.112 1104.91 587.548C1106.13 586.207 1108.33 583.81 1109.79 582.266C1111.25 580.681 1114.83 576.659 1117.71 573.327C1120.64 569.996 1123.85 566.339 1124.86 565.201C1127.66 562.113 1136.72 550.818 1140.87 545.292C1141.84 543.951 1143.35 541.961 1144.2 540.864C1149.85 533.509 1159.92 517.338 1164.02 508.969C1167.64 501.615 1171.7 491.213 1173.2 485.565C1176.09 474.636 1176.62 471.71 1177.47 461.431C1178.2 452.817 1178.2 452.695 1177.31 442.944C1176.82 437.581 1176.13 431.974 1175.76 430.511C1175.44 429.048 1174.79 426.489 1174.38 424.823C1172.35 416.697 1167.31 403.858 1164.06 398.454C1163.25 397.154 1162.6 395.894 1162.6 395.691C1162.6 395.081 1154.64 383.502 1151.88 380.129C1146.39 373.385 1136.28 363.999 1129.29 359.123C1126.61 357.214 1115.07 350.225 1113.65 349.616C1113 349.331 1111.78 348.681 1110.97 348.194C1109.67 347.381 1107.76 346.528 1096.99 341.937C1088.83 338.442 1067.66 331.942 1055.35 329.138C1041.62 326.01 1039.02 325.481 1025.49 323.287C1009.37 320.606 1000.22 319.265 996.243 318.98C994.456 318.818 991.897 318.534 990.556 318.29C987.712 317.802 980.4 317.071 955.619 314.796C928.238 312.276 918.041 311.464 905.447 310.854C899.069 310.529 890.213 310.082 885.744 309.839C881.275 309.635 873.597 309.229 868.682 309.026C863.766 308.782 857.469 308.417 854.666 308.213C851.863 308.01 845.566 307.563 840.651 307.198C826.879 306.304 815.91 304.882 809.451 303.175C801.204 300.981 793.445 295.862 788.61 289.32C785.523 285.217 781.582 277.984 779.186 272.052C778.495 270.386 777.276 267.461 776.464 265.551C775.651 263.642 774.351 260.432 773.579 258.441C772.807 256.41 771.751 253.769 771.223 252.55C770.736 251.331 769.801 249.015 769.232 247.471C768.623 245.886 766.957 241.579 765.495 237.841C764.032 234.144 762.854 230.975 762.854 230.853C762.854 230.69 762.489 229.837 762.042 228.862C761.311 227.237 760.539 225.205 757.979 218.217C756.476 214.032 731.33 151.461 729.339 146.91C728.526 145.001 727.023 141.425 726.008 138.987C724.098 134.274 721.864 129.114 720.605 126.392C720.198 125.498 719.467 123.832 719.02 122.654C718.289 120.785 716.42 116.559 713.089 109.327C712.561 108.19 711.058 104.898 709.677 101.932C704.883 91.4497 697.449 77.3103 692.614 69.428C692.045 68.4935 690.827 66.5026 689.933 65.0399C676.324 42.4494 659.627 24.4094 643.011 14.3331C632.408 7.91347 622.862 4.13483 610.308 1.41259C605.027 0.274936 603.93 0.153044 594.668 0.0311529C589.184 -0.0501081 583.699 0.0311529 582.481 0.234305ZM593.937 219.476C594.343 219.598 595.684 220.898 596.984 222.402C599.259 225.083 603.362 232.884 606.368 240.36C607.059 242.026 608.196 244.789 608.887 246.455C609.618 248.121 610.593 250.599 611.121 251.94C612.868 256.491 615.427 262.91 616.199 264.739C616.93 266.364 617.946 269.167 620.262 275.506C621.887 280.138 643.905 334.786 645.815 339.093C653.452 356.157 659.464 367.493 666.046 377.366C672.911 387.646 678.111 394.106 685.83 401.989C695.174 411.537 702.974 417.713 714.348 424.538C718.573 427.098 720.198 427.911 729.339 432.055C735.473 434.859 751.033 439.937 758.792 441.685C760.458 442.05 763.017 442.619 764.479 442.944C771.589 444.529 782.354 446.52 787.635 447.17C789.301 447.373 791.982 447.779 793.526 447.982C801.976 449.323 835.37 452.289 849.994 453.061C856.697 453.386 865.107 453.874 868.682 454.077C872.257 454.321 879.407 454.686 884.525 454.889C924.419 456.677 953.953 458.465 969.228 460.009C972.681 460.375 977.353 460.821 979.587 460.984C983.65 461.309 991.897 462.569 996.853 463.625C1004.25 465.21 1008.63 468.379 1008.63 472.117C1008.63 474.88 1007.25 478.049 1003.88 483.046C1001.97 485.891 1000.18 488.369 999.94 488.531C999.697 488.694 998.315 490.197 996.853 491.863C983.284 507.587 960.941 530.422 940.263 549.762C926.694 562.438 879.569 609.367 869.657 620.052C858.404 632.201 846.704 646.787 837.157 660.48C832.485 667.184 824.888 679.576 822.004 685.183C814.732 699.444 809.695 715.168 807.379 730.974C803.845 755.067 807.623 783.265 819.973 824.83C821.191 828.974 836.507 875.252 838.051 879.478C838.335 880.25 839.148 882.525 839.879 884.557C840.569 886.548 841.869 890.042 842.682 892.277C843.494 894.511 844.429 897.152 844.713 898.168C845.038 899.184 846.013 902.109 846.907 904.669C850.401 914.745 851.944 922.709 851.01 925.553C850.279 927.788 849.06 928.397 845.932 928.153C843.738 927.95 842.357 927.463 837.807 925.228C834.801 923.725 831.551 921.937 830.616 921.206C829.641 920.474 828.138 919.458 827.245 918.89C824.807 917.427 809.41 907.147 801.042 901.378C789.057 893.089 784.751 890.164 772.604 882.078C754.039 869.686 752.698 868.833 743.029 863.063C733.198 857.172 730.923 855.912 719.589 850.265C702.08 841.529 689.405 837.263 671.449 834.094C663.283 832.672 662.877 832.631 649.511 832.428C634.561 832.225 633.14 832.347 618.84 834.663C610.024 836.085 599.787 838.441 592.23 840.838C585.081 843.073 572.609 847.502 569.684 848.802C567.49 849.777 562.453 851.931 559.121 853.312C553.799 855.465 521.015 871.555 507.122 878.828C495.056 885.166 490.059 887.767 483.966 891.058C481.975 892.114 479.212 893.577 477.872 894.268C476.531 894.999 473.322 896.746 470.763 898.168C468.203 899.59 464.994 901.337 463.653 902.028C462.313 902.719 459.591 904.181 457.56 905.238C455.569 906.294 453.7 907.351 453.497 907.513C453.253 907.716 451.71 908.569 450.044 909.463C442.569 913.364 439.644 914.908 439.278 915.233C439.035 915.436 437.207 916.452 435.216 917.508C429.569 920.434 427.05 921.774 422.013 924.578C419.454 925.959 415.716 927.991 413.685 929.047C411.694 930.104 408.038 932.013 405.56 933.313C399.344 936.564 372.573 949.972 366.154 953.019C363.27 954.401 359.41 956.229 357.623 957.082C346.288 962.527 336.985 964.965 333.37 963.461C331.745 962.771 330.485 961.105 329.713 958.586C329.348 957.367 329.348 956.026 329.754 952.694C330.567 946.315 332.476 939.367 337.513 924.578C343.607 906.741 344.42 904.466 346.857 898.371C348.035 895.446 349.416 891.789 349.904 890.245C350.432 888.661 351.123 886.751 351.448 885.979C351.813 885.207 354.251 879.153 356.851 872.571C359.451 865.989 361.848 860.016 362.132 859.366C363.148 857.05 372.166 834.175 373.873 829.503C374.848 826.943 376.391 822.798 377.326 820.361C381.835 808.456 388.863 787.978 391.544 778.918C392.276 776.439 393.332 772.986 393.86 771.198C395.201 766.81 397.029 759.577 398.247 753.93C398.816 751.37 399.547 748.16 399.872 746.819C400.563 744.097 402.188 733.818 402.919 727.926C403.691 721.588 403.894 707.977 403.366 701.476C400.604 669.337 388.416 640.896 364.935 611.886C359.37 605.019 351.041 596.162 338.042 583.241C322.035 567.395 313.098 559.147 302.82 550.818C300.789 549.193 298.311 547.08 297.295 546.146C295.467 544.439 275.764 528.674 270.889 524.977C269.426 523.88 267.517 522.417 266.623 521.767C265.12 520.589 256.508 514.088 245.255 505.637C236.033 498.689 231.361 493.041 232.295 489.872C232.824 488.003 233.392 487.434 235.87 486.337C241.07 484.022 254.68 482.356 282.264 480.69C287.748 480.324 294.045 479.877 296.279 479.674C298.514 479.471 305.014 478.983 310.701 478.658C316.389 478.333 321.629 477.968 322.279 477.846C322.97 477.724 326.626 477.48 330.404 477.236C334.223 477.033 340.885 476.545 345.232 476.22C349.579 475.855 355.916 475.408 359.248 475.205C362.62 475.002 367.535 474.636 370.216 474.392C372.898 474.148 378.951 473.701 383.623 473.376C398.776 472.279 403.041 471.995 407.997 471.548C410.679 471.304 416.244 470.857 420.388 470.532C427.457 469.963 434.81 469.232 442.731 468.338C448.5 467.688 463.369 465.088 468.569 463.788C474.013 462.487 479.7 460.618 484.981 458.424C508.056 448.957 523.412 430.796 527.556 407.961C529.181 399.185 529.14 399.429 530.075 381.876C530.522 373.507 532.756 359.53 534.137 356.279C534.34 355.792 534.99 353.598 535.559 351.404C536.778 346.853 541.328 332.51 543.278 327.107C544.009 325.075 545.187 321.784 545.878 319.793C547.3 315.73 548.437 312.764 550.631 306.994C551.443 304.882 552.621 301.672 553.231 299.884C553.881 298.096 554.937 295.252 555.587 293.586C556.724 290.661 558.999 284.77 563.671 272.662C564.89 269.533 566.231 266.161 566.637 265.145C567.084 264.129 568.099 261.57 568.871 259.457C569.684 257.344 571.024 253.85 571.918 251.737C572.771 249.624 574.234 245.967 575.168 243.611C576.102 241.254 577.321 238.329 577.89 237.11C581.668 229.025 582.643 227.115 584.552 224.149C586.34 221.386 587.031 220.695 588.737 219.842C590.727 218.908 591.58 218.826 593.937 219.476Z" fill="#00624D"/>
</svg>
