<svg width="154" height="118" viewBox="0 0 154 118" fill="none" xmlns="http://www.w3.org/2000/svg">
<path fill-rule="evenodd" clip-rule="evenodd" d="M153.236 81.986C154.096 84.6562 153.159 85.1386 152.583 85.9079C152.188 86.4343 149.984 88.0338 148.225 89.1761C146.716 90.1564 145.478 90.2268 144.739 88.7404C144.378 88.0142 143.523 84.1978 142.342 82.6397C141.71 81.8054 141.563 82.1527 140.599 83.0755C139.208 84.4061 131.59 89.6629 127.962 91.1371C126.29 91.8164 126.655 92.513 126.655 93.7516C126.654 94.7953 127.467 100.916 127.526 101.595C127.586 102.275 127.702 103.523 126.655 104.428C125.608 105.333 122.583 107.557 120.99 108.35C119.137 109.271 117.549 109.531 117.286 106.825C110.968 41.8941 85.763 33.1179 79.1566 27.2978C77.0048 25.4023 77.5966 22.6814 81.5533 22.7223C123.746 23.1581 149.162 69.3254 153.236 81.986ZM137.113 71.7456C137.113 71.7456 124.925 46.908 105.52 37.5383C104.202 36.9016 103.625 37.4051 104.431 38.6277C109.185 45.8393 117.877 57.4511 123.822 79.5894C124.326 81.4647 124.464 81.6276 126.437 80.8966C128.719 80.0513 135.575 75.3019 136.895 73.7066C137.65 72.7941 137.113 71.7456 137.113 71.7456Z" fill="#FFF9F0"/>
<path fill-rule="evenodd" clip-rule="evenodd" d="M104.213 75.4496C103.85 73.5612 94.4856 31.9241 61.2905 29.2587C33.7798 27.0498 -3.63048 75.7114 0.283762 104.864C2.08891 118.308 15.3256 106.389 42.3349 106.389C71.305 106.389 96.3694 117.065 96.3694 117.065C96.3694 117.065 109.246 121.88 109.224 109.657C109.199 94.9504 106.029 90.2947 101.163 86.9973C93.523 81.8202 66.009 69.8348 31.2229 75.0138C28.9012 75.3594 25.1076 83.4478 24.9044 85.4721C24.7011 87.4964 26.5518 86.8844 27.0832 86.7794C50.2832 82.1973 79.6379 87.2605 94.6264 97.2377C95.3624 97.7277 95.6151 98.1561 95.9337 98.9807C96.077 99.352 96.6762 101.182 96.8052 103.992C96.8331 104.601 96.7523 105.038 95.7158 104.428C94.1738 103.52 54.3236 87.8727 15.3176 96.5841C12.4703 97.22 12.8897 95.5744 12.9209 95.0589C13.5562 84.5337 31.6308 41.1226 60.419 41.0243C77.5493 40.9657 88.017 63.9934 90.2688 70.2204C91.5166 73.6708 90.4662 72.8448 93.9727 73.9244C97.1416 74.8998 100.893 76.6915 102.034 77.4105C103.176 78.1295 103.51 78.0759 103.995 77.8463C104.481 77.6166 104.353 76.1768 104.213 75.4496Z" fill="#FFF9F0"/>
<path fill-rule="evenodd" clip-rule="evenodd" d="M78.9083 0.497315C78.9083 0.497315 73.6412 2.91222 70.9303 8.95724C68.2194 15.0023 71.0708 20.709 71.1814 20.9203C71.2921 21.1315 71.6318 21.3586 71.9478 21.3374C72.2638 21.3161 78.1134 19.7991 81.3079 12.9537C84.0069 7.16998 80.0805 0.666936 79.6938 0.488761C79.3073 0.310462 78.9083 0.497315 78.9083 0.497315Z" fill="#FFF9F0"/>
<path fill-rule="evenodd" clip-rule="evenodd" d="M66.6567 22.2544C66.6927 21.6071 65.6065 16.2616 60.3885 12.6028C55.7547 9.35327 48.4668 10.1696 48.2305 10.2019C47.7822 10.2631 47.4942 10.7637 47.4847 11.0802C47.4354 12.7004 48.1618 17.7306 53.3245 21.6216C58.2433 25.329 66.0141 23.1421 66.2734 23.0222C66.6598 22.8439 66.6423 22.5157 66.6567 22.2544Z" fill="#FFF9F0"/>
</svg>
