<svg width="1805" height="1135" viewBox="0 0 1805 1135" fill="none" xmlns="http://www.w3.org/2000/svg">
<g clip-path="url(#clip0_169_7)">
<path d="M1084 34.5H909.5L731.5 52.5L448 223.5L216 597.5L183 848L898.5 1004L1065.5 986L1592 772L1530.5 496L1269 176L1084 34.5Z" fill="#FFF9F0"/>
<path d="M769.438 9.57991C576.759 51.0395 399.393 197.105 276.258 415.884C237.977 484.77 80.389 736.717 66.9909 750.749C59.9728 758.403 56.1447 758.403 44.0226 750.111C21.6923 736.079 0 746.284 0 769.884C0 791.571 26.7963 847.701 45.2986 864.285C65.7148 882.782 79.751 869.387 79.751 830.479C79.751 802.414 84.2171 792.209 120.584 735.441C169.072 661.452 175.452 653.16 169.71 675.484C167.796 684.414 159.502 718.22 152.484 750.749C139.724 806.879 139.724 811.982 149.294 837.495C155.036 852.804 167.158 868.75 177.366 874.49C187.574 880.869 256.479 893.625 352.818 907.658C530.185 933.809 650.13 957.409 800.7 995.68C948.718 1033.31 964.03 1035.86 1003.59 1028.21C1021.45 1024.38 1043.14 1019.28 1050.8 1016.73C1062.92 1012.9 1064.84 1015.45 1069.3 1043.52C1072.49 1060.1 1073.77 1083.7 1072.49 1095.18C1068.66 1137.28 1106.31 1150.04 1128 1113.68C1161.81 1058.19 1159.26 1019.92 1122.26 1019.92C1106.31 1019.92 1103.12 1017.37 1105.03 1005.89C1106.31 995.042 1126.08 983.561 1202.65 949.755C1318.12 898.09 1410.64 866.198 1499.96 847.701C1536.32 840.047 1573.33 829.841 1582.26 825.376C1614.8 808.155 1639.68 769.884 1639.68 736.079C1639.68 723.322 1616.71 636.576 1603.95 602.133C1599.49 589.376 1632.02 631.473 1691.36 715.03C1717.52 751.387 1722.62 762.868 1721.35 783.917C1719.43 840.047 1750.06 833.031 1783.23 770.522C1805.56 727.787 1806.2 725.236 1796.63 709.928C1784.51 692.706 1764.09 690.155 1747.5 704.825C1737.3 713.755 1730.28 706.101 1648.61 594.479C1600.12 528.781 1533.77 435.657 1501.23 387.819C1400.43 240.478 1331.52 169.678 1220.51 96.9639C1106.31 22.3367 1029.75 -0.625515 900.229 0.0123241C849.827 0.0123241 794.958 4.4772 769.438 9.57991ZM864.501 102.704C881.727 140.337 899.591 192.64 899.591 204.121C899.591 206.672 886.831 203.483 870.881 196.467C820.478 174.142 745.193 158.196 669.909 153.732L596.538 149.267L657.148 119.288C715.845 89.9477 796.234 64.4341 830.049 63.7963C844.723 63.1584 849.189 68.2611 864.501 102.704ZM1026.56 75.9152C1069.94 88.0342 1144.59 120.564 1156.71 132.683C1159.26 135.872 1148.41 139.699 1132.46 141.613C1097.37 146.715 1025.92 174.142 995.293 195.191C969.134 213.051 963.392 213.689 963.392 198.38C962.754 192.64 953.184 159.472 941.7 125.029L920.646 63.1584H949.994C966.582 63.1584 1001.03 68.899 1026.56 75.9152ZM1277.29 219.429C1360.23 290.229 1439.98 399.938 1498.68 523.041C1558.65 649.333 1582.9 739.906 1560.57 757.766C1555.46 762.23 1514.63 774.987 1469.33 787.106C1363.42 815.171 1293.88 840.047 1180.95 889.798C1130.55 912.123 1088.44 929.982 1087.8 929.344C1079.51 919.777 1007.41 526.23 1001.67 461.808C997.845 415.884 992.103 356.565 987.637 329.137C981.256 280.662 981.256 278.748 995.931 262.802C1031.66 224.532 1122.89 191.364 1194.35 191.364L1242.84 190.726L1277.29 219.429ZM704.999 210.499C798.786 223.256 900.229 262.802 914.904 292.143C935.32 332.327 953.822 611.7 949.356 817.085C948.08 893.625 944.89 957.409 942.976 959.961C937.872 964.425 914.266 959.323 803.89 930.62C759.868 919.777 721.587 907.658 718.397 905.106C710.741 897.452 761.782 674.846 803.89 534.522C822.392 473.289 818.564 435.657 790.492 407.592C762.42 379.527 730.519 373.148 620.782 372.511C532.737 372.511 522.529 373.786 505.94 385.905C476.592 407.592 449.796 447.776 424.913 507.095C393.013 582.998 327.936 773.712 322.194 808.793L317.728 836.22L274.981 831.755C220.751 826.014 210.543 820.274 210.543 796.036C210.543 748.198 259.669 597.03 308.796 493.062C363.027 378.251 456.814 253.235 505.94 229.634C555.067 206.034 624.61 199.018 704.999 210.499ZM687.135 433.743C714.569 437.57 740.727 444.586 745.831 449.051C758.592 461.17 756.04 491.149 736.899 554.295C713.931 630.836 683.307 751.387 669.909 821.549C663.528 854.079 655.872 883.42 652.682 886.609C647.578 891.712 380.891 847.701 373.235 840.047C366.217 833.031 448.52 584.911 482.972 510.284C502.112 468.824 523.167 438.846 537.841 433.105C557.619 425.451 627.8 425.451 687.135 433.743ZM1041.23 947.842C1035.49 952.307 1025.28 956.134 1018.9 956.134C1007.41 956.134 1006.78 952.944 1009.97 912.76C1012.52 889.16 1014.43 848.339 1015.07 822.187L1015.71 774.349L1033.57 857.268C1048.89 931.258 1049.52 940.825 1041.23 947.842Z" fill="#00624D"/>
</g>
<defs>
<clipPath id="clip0_169_7">
<rect width="1805" height="1135" fill="white"/>
</clipPath>
</defs>
</svg>
